<svg width="25" height="25" viewBox="0 0 25 25" fill="none" xmlns="http://www.w3.org/2000/svg">
<path d="M6.25 21.875V19.7917C6.25 18.6866 6.68899 17.6268 7.47039 16.8454C8.25179 16.064 9.3116 15.625 10.4167 15.625H14.0625M22.9167 22.9167L17.7083 17.7083M17.7083 22.9167L22.9167 17.7083M8.33333 7.29167C8.33333 8.39674 8.77232 9.45654 9.55372 10.2379C10.3351 11.0193 11.3949 11.4583 12.5 11.4583C13.6051 11.4583 14.6649 11.0193 15.4463 10.2379C16.2277 9.45654 16.6667 8.39674 16.6667 7.29167C16.6667 6.1866 16.2277 5.12679 15.4463 4.34539C14.6649 3.56399 13.6051 3.125 12.5 3.125C11.3949 3.125 10.3351 3.56399 9.55372 4.34539C8.77232 5.12679 8.33333 6.1866 8.33333 7.29167Z" stroke="#5E6D93" stroke-width="2.08333" stroke-linecap="round" stroke-linejoin="round"/>
</svg>
