<svg width="25" height="25" viewBox="0 0 25 25" fill="none" xmlns="http://www.w3.org/2000/svg">
<path d="M8.33325 11.4583V7.29167C8.33325 6.1866 8.77224 5.12679 9.55364 4.34539C10.335 3.56399 11.3949 3.125 12.4999 3.125C13.605 3.125 14.6648 3.56399 15.4462 4.34539C16.2276 5.12679 16.6666 6.1866 16.6666 7.29167V11.4583M15.6249 16.6667H15.6353M12.5103 16.6667H12.5208M9.39575 16.6667H9.40617M5.20825 13.5417C5.20825 12.9891 5.42775 12.4592 5.81845 12.0685C6.20915 11.6778 6.73905 11.4583 7.29159 11.4583H17.7083C18.2608 11.4583 18.7907 11.6778 19.1814 12.0685C19.5721 12.4592 19.7916 12.9891 19.7916 13.5417V19.7917C19.7916 20.3442 19.5721 20.8741 19.1814 21.2648C18.7907 21.6555 18.2608 21.875 17.7083 21.875H7.29159C6.73905 21.875 6.20915 21.6555 5.81845 21.2648C5.42775 20.8741 5.20825 20.3442 5.20825 19.7917V13.5417Z" stroke="#5E6D93" stroke-width="1.78571" stroke-linecap="round" stroke-linejoin="round"/>
</svg>
