<svg width="25" height="25" viewBox="0 0 25 25" fill="none" xmlns="http://www.w3.org/2000/svg">
<path d="M14.5833 8.33342V6.25008C14.5833 5.69755 14.3638 5.16764 13.9731 4.77694C13.5824 4.38624 13.0525 4.16675 12.5 4.16675H5.20833C4.6558 4.16675 4.12589 4.38624 3.73519 4.77694C3.34449 5.16764 3.125 5.69755 3.125 6.25008V18.7501C3.125 19.3026 3.34449 19.8325 3.73519 20.2232C4.12589 20.6139 4.6558 20.8334 5.20833 20.8334H12.5C13.0525 20.8334 13.5824 20.6139 13.9731 20.2232C14.3638 19.8325 14.5833 19.3026 14.5833 18.7501V16.6667" stroke="#5E6D93" stroke-width="2.08333" stroke-linecap="round" stroke-linejoin="round"/>
<path d="M9.375 12.5001H21.875M21.875 12.5001L18.75 9.37512M21.875 12.5001L18.75 15.6251" stroke="#5E6D93" stroke-width="2.08333" stroke-linecap="round" stroke-linejoin="round"/>
</svg>
