<svg width="25" height="25" viewBox="0 0 25 25" fill="none" xmlns="http://www.w3.org/2000/svg">
<path d="M7.2915 7.29175H6.24984C5.6973 7.29175 5.1674 7.51124 4.7767 7.90194C4.386 8.29264 4.1665 8.82255 4.1665 9.37508V18.7501C4.1665 19.3026 4.386 19.8325 4.7767 20.2232C5.1674 20.6139 5.6973 20.8334 6.24984 20.8334H15.6248C16.1774 20.8334 16.7073 20.6139 17.098 20.2232C17.4887 19.8325 17.7082 19.3026 17.7082 18.7501V17.7084" stroke="#5E6D93" stroke-width="2.08333" stroke-linecap="round" stroke-linejoin="round"/>
<path d="M16.6664 5.20832L19.7914 8.33332M21.2341 6.85936C21.6444 6.44911 21.8749 5.89268 21.8749 5.31249C21.8749 4.7323 21.6444 4.17587 21.2341 3.76561C20.8239 3.35536 20.2674 3.12488 19.6873 3.12488C19.1071 3.12488 18.5506 3.35536 18.1404 3.76561L9.37476 12.5V15.625H12.4998L21.2341 6.85936Z" stroke="#5E6D93" stroke-width="2.08333" stroke-linecap="round" stroke-linejoin="round"/>
</svg>
